{
  "accessors": [
    {
      "bufferView": 2,
      "componentType": 5126,
      "count": 407,
      "max": [
        1.2840399742126465,
        1.3315399885177612,
        1.2840399742126465
      ],
      "min": [
        -1.2840399742126465,
        -1.3145400285720825,
        -1.2840399742126465
      ],
      "type": "VEC3"
    },
    {
      "bufferView": 2,
      "byteOffset": 4884,
      "componentType": 5126,
      "count": 407,
      "max": [
        0.9999969601631165,
        1.0,
        0.9999969601631165
      ],
      "min": [
        -0.9999969601631165,
        -1.0,
        -0.9999969601631165
      ],
      "type": "VEC3"
    },
    {
      "bufferView": 1,
      "componentType": 5126,
      "count": 407,
      "max": [
        1.0000100135803223,
        0.9992899894714355
      ],
      "min": [
        0.0,
        0.0006399999838322401
      ],
      "type": "VEC2"
    },
    {
      "bufferView": 0,
      "componentType": 5125,
      "count": 2304,
      "type": "SCALAR"
    },
    {
      "bufferView": 2,
      "byteOffset": 9768,
      "componentType": 5126,
      "count": 407,
      "max": [
        1.3475199937820435,
        1.3969800472259521,
        1.3475199937820435
      ],
      "min": [
        -1.3475199937820435,
        -1.3799099922180176,
        -1.3475199937820435
      ],
      "type": "VEC3"
    },
    {
      "bufferView": 2,
      "byteOffset": 14652,
      "componentType": 5126,
      "count": 407,
      "max": [
        0.9999969601631165,
        1.0,
        0.9999969601631165
      ],
      "min": [
        -0.9999969601631165,
        -1.0,
        -0.9999969601631165
      ],
      "type": "VEC3"
    },
    {
      "bufferView": 1,
      "byteOffset": 3256,
      "componentType": 5126,
      "count": 407,
      "max": [
        1.0000100135803223,
        0.9992899894714355
      ],
      "min": [
        0.0,
        0.0006399999838322401
      ],
      "type": "VEC2"
    },
    {
      "bufferView": 0,
      "byteOffset": 9216,
      "componentType": 5125,
      "count": 2304,
      "type": "SCALAR"
    },
    {
      "bufferView": 2,
      "byteOffset": 19536,
      "componentType": 5126,
      "count": 740,
      "max": [
        1.309880018234253,
        1.309880018234253,
        -0.915440022945404
      ],
      "min": [
        -1.309880018234253,
        -1.309880018234253,
        -1.4311000108718872
      ],
      "type": "VEC3"
    },
    {
      "bufferView": 2,
      "byteOffset": 28416,
      "componentType": 5126,
      "count": 740,
      "max": [
        0.999805748462677,
        0.999805748462677,
        1.0
      ],
      "min": [
        -0.999805748462677,
        -0.999805748462677,
        -1.0
      ],
      "type": "VEC3"
    },
    {
      "bufferView": 1,
      "byteOffset": 6512,
      "componentType": 5126,
      "count": 740,
      "max": [
        0.9830099940299988,
        0.9998199939727783
      ],
      "min": [
        0.00018000000272877514,
        0.01104000024497509
      ],
      "type": "VEC2"
    },
    {
      "bufferView": 0,
      "byteOffset": 18432,
      "componentType": 5125,
      "count": 3864,
      "type": "SCALAR"
    }
  ],
  "asset": {
    "extras": {
      "author": "luyssport (https://sketchfab.com/luyssport)",
      "license": "CC-BY-4.0 (http://creativecommons.org/licenses/by/4.0/)",
      "source": "https://sketchfab.com/3d-models/twa-52b771bb17c54ec985981e5ab119f5af",
      "title": "Twa"
    },
    "generator": "Sketchfab-12.68.0",
    "version": "2.0"
  },
  "bufferViews": [
    {
      "buffer": 0,
      "byteLength": 33888,
      "name": "floatBufferViews",
      "target": 34963
    },
    {
      "buffer": 0,
      "byteLength": 12432,
      "byteOffset": 33888,
      "byteStride": 8,
      "name": "floatBufferViews",
      "target": 34962
    },
    {
      "buffer": 0,
      "byteLength": 37296,
      "byteOffset": 46320,
      "byteStride": 12,
      "name": "floatBufferViews",
      "target": 34962
    }
  ],
  "buffers": [
    {
      "byteLength": 83616,
      "uri": "scene.bin"
    }
  ],
  "extensionsUsed": [
    "KHR_materials_transmission"
  ],
  "images": [
    {
      "uri": "textures/material_metallicRoughness.png"
    },
    {
      "uri": "textures/Material_baseColor.jpeg"
    }
  ],
  "materials": [
    {
      "doubleSided": true,
      "name": "material",
      "occlusionTexture": {
        "index": 0
      },
      "pbrMetallicRoughness": {
        "baseColorFactor": [
          0.3987110275239502,
          0.40395232919355684,
          0.34703095899944947,
          1.0
        ],
        "metallicRoughnessTexture": {
          "index": 0
        },
        "roughnessFactor": 0.1901954167654695
      }
    },
    {
      "alphaMode": "BLEND",
      "extensions": {
        "KHR_materials_transmission": {
          "transmissionFactor": 1.0
        }
      },
      "name": "material_1",
      "pbrMetallicRoughness": {
        "baseColorFactor": [
          0.800000011920929,
          0.800000011920929,
          0.800000011920929,
          0.25
        ],
        "metallicFactor": 0.0,
        "roughnessFactor": 0.0
      }
    },
    {
      "emissiveFactor": [
        1.0,
        1.0,
        1.0
      ],
      "emissiveTexture": {
        "index": 1
      },
      "name": "Material",
      "pbrMetallicRoughness": {
        "baseColorTexture": {
          "index": 1
        },
        "metallicFactor": 0.0
      }
    }
  ],
  "meshes": [
    {
      "name": "Cube_0",
      "primitives": [
        {
          "attributes": {
            "NORMAL": 1,
            "POSITION": 0,
            "TEXCOORD_0": 2
          },
          "indices": 3,
          "material": 2,
          "mode": 4
        }
      ]
    },
    {
      "name": "001_0",
      "primitives": [
        {
          "attributes": {
            "NORMAL": 5,
            "POSITION": 4,
            "TEXCOORD_0": 6
          },
          "indices": 7,
          "material": 1,
          "mode": 4
        }
      ]
    },
    {
      "name": "002_0",
      "primitives": [
        {
          "attributes": {
            "NORMAL": 9,
            "POSITION": 8,
            "TEXCOORD_0": 10
          },
          "indices": 11,
          "material": 0,
          "mode": 4
        }
      ]
    }
  ],
  "nodes": [
    {
      "children": [
        1
      ],
      "matrix": [
        1.0,
        0.0,
        0.0,
        0.0,
        0.0,
        2.220446049250313e-16,
        -1.0,
        0.0,
        0.0,
        1.0,
        2.220446049250313e-16,
        0.0,
        0.0,
        0.0,
        0.0,
        1.0
      ],
      "name": "Sketchfab_model"
    },
    {
      "children": [
        2,
        4,
        6,
        8
      ],
      "name": "Root"
    },
    {
      "children": [
        3
      ],
      "name": "Cube"
    },
    {
      "mesh": 0,
      "name": "Cube_0"
    },
    {
      "children": [
        5
      ],
      "name": "001"
    },
    {
      "mesh": 1,
      "name": "001_0"
    },
    {
      "children": [
        7
      ],
      "name": "002"
    },
    {
      "mesh": 2,
      "name": "002_0"
    },
    {
      "children": [
        9
      ],
      "matrix": [
        1.0,
        0.0,
        0.0,
        0.0,
        0.0,
        1.0,
        0.0,
        0.0,
        0.0,
        0.0,
        1.0,
        0.0,
        0.0,
        0.0,
        3.08368,
        1.0
      ],
      "name": "Hemi"
    },
    {
      "name": "Hemi"
    }
  ],
  "samplers": [
    {
      "magFilter": 9729,
      "minFilter": 9987,
      "wrapS": 10497,
      "wrapT": 10497
    }
  ],
  "scene": 0,
  "scenes": [
    {
      "name": "Sketchfab_Scene",
      "nodes": [
        0
      ]
    }
  ],
  "textures": [
    {
      "sampler": 0,
      "source": 0
    },
    {
      "sampler": 0,
      "source": 1
    }
  ]
}
